<?xml version="1.0" encoding="UTF-8"?>
<svg id="Layer_1" data-name="Layer 1" xmlns="http://www.w3.org/2000/svg" viewBox="0 0 1300 900">
  <defs>
    <style>
      .cls-1 {
        fill: #fff;
      }
    </style>
  </defs>
  <g>
    <path class="cls-1" d="M457.72,388.15l-7.67,4.02-7.66-4.02-58.33,33.69v56.48l58.38,33.52,9.39-5.45,9.38,5.45,56.67-32.4.04-57.6-60.2-33.69ZM451.83,478.99l-50.17-28.98,48.29-27.62v.08l48.69,27.84-46.81,28.68Z"/>
    <g>
      <path class="cls-1" d="M596.56,498.22c-13.05,0-23.55-4.49-31.5-13.48-7.95-8.99-11.92-20.57-11.92-34.74s3.95-25.55,11.86-34.67c7.91-9.12,18.6-13.68,32.08-13.68,10.54,0,19.05,2.72,25.54,8.17,6.48,5.45,10.37,12.57,11.67,21.39h-11.41c-1.12-5.88-3.95-10.59-8.49-14.13-4.54-3.54-10.39-5.32-17.56-5.32-9.94,0-17.72,3.57-23.33,10.69-5.62,7.13-8.43,16.31-8.43,27.54s2.92,20.59,8.75,27.55c5.83,6.96,13.55,10.43,23.14,10.43,8.3,0,14.71-2.42,19.25-7.26,4.54-4.84,7.11-10.93,7.71-18.28h11.54c-.09,4.58-1.15,9.27-3.18,14.06-2.03,4.8-4.69,8.79-7.97,11.99-6.65,6.48-15.9,9.72-27.74,9.72"/>
      <path class="cls-1" d="M696.37,497.05c-6.66,0-10.5-3.33-11.54-9.98h-.13c-5.53,7.09-12.96,10.63-22.29,10.63-6.66,0-12.1-1.6-16.33-4.8-4.23-3.2-6.35-7.82-6.35-13.87,0-3.11.5-5.81,1.49-8.1.99-2.29,2.27-4.15,3.82-5.57,1.56-1.43,3.7-2.68,6.42-3.76,2.72-1.08,5.33-1.9,7.84-2.46,2.51-.56,5.7-1.14,9.59-1.75,2.51-.34,4.3-.63,5.38-.84,1.08-.21,2.48-.56,4.21-1.04,1.73-.47,2.94-1.01,3.63-1.62.69-.6,1.34-1.43,1.94-2.46.6-1.04.91-2.25.91-3.63,0-3.8-1.32-6.72-3.95-8.75-2.64-2.03-6.33-3.05-11.08-3.05-10.8,0-16.38,4.93-16.72,14.78h-10.11c.17-6.83,2.53-12.31,7.06-16.46,4.54-4.15,11.08-6.22,19.64-6.22,16.5,0,24.76,7.09,24.76,21.26v31.89c0,2.94.5,5.01,1.49,6.22.99,1.21,2.87,1.51,5.64.91h.39v7.65c-1.73.69-3.63,1.04-5.7,1.04M664.74,489.67c6.48,0,11.49-1.88,15.04-5.64,3.54-3.76,5.31-7.88,5.31-12.38v-11.41c-3.2,1.99-8.3,3.63-15.29,4.93-2.59.52-4.62.93-6.09,1.23-1.47.3-3.16.82-5.05,1.56-1.9.73-3.33,1.53-4.28,2.4-.95.86-1.77,2.01-2.46,3.44-.69,1.42-1.04,3.09-1.04,4.99,0,7.26,4.62,10.89,13.87,10.89"/>
      <rect class="cls-1" x="707" y="403.72" width="10.5" height="92.68"/>
      <path class="cls-1" d="M728.9,403.72h10.5v12.96h-10.5v-12.96ZM728.9,429.39h10.5v67.02h-10.5v-67.02Z"/>
      <path class="cls-1" d="M782.31,498.35c-8.9,0-15.94-3.58-21.13-10.76h-.26v8.81h-10.5v-92.68h10.5v35.26h.26c5.45-7.43,12.62-11.15,21.52-11.15s15.55,3.13,20.74,9.4c5.18,6.27,7.78,14.89,7.78,25.86s-2.57,19.38-7.71,25.73c-5.14,6.35-12.21,9.53-21.19,9.53M781.53,489.54c6.22,0,10.93-2.4,14.13-7.19,3.2-4.8,4.8-11.17,4.8-19.12s-1.6-14.24-4.8-19.12c-3.2-4.88-7.86-7.32-14-7.32-7,0-12.31,2.48-15.94,7.45-3.63,4.97-5.44,11.3-5.44,18.99s1.81,14.22,5.44,19.05c3.63,4.84,8.9,7.26,15.81,7.26"/>
      <path class="cls-1" d="M828.97,429.39v11.15h.26c2.16-3.54,4.97-6.42,8.42-8.62,3.46-2.2,7.3-3.31,11.54-3.31,1.56,0,2.98.26,4.28.78v10.11h-.39c-1.3-.43-2.85-.65-4.67-.65-5.36,0-9.94,1.88-13.74,5.64-3.8,3.76-5.7,8.66-5.7,14.71v37.2h-10.5v-67.02h10.5Z"/>
      <path class="cls-1" d="M885.75,498.22c-9.94,0-17.82-3.35-23.66-10.05-5.83-6.7-8.75-15.1-8.75-25.21s2.96-18.3,8.88-25.08c5.92-6.78,13.55-10.18,22.88-10.18,9.85,0,17.46,3.43,22.81,10.31,5.36,6.87,8.04,16.01,8.04,27.42h-51.85c.43,7.09,2.53,12.85,6.29,17.3,3.76,4.45,8.88,6.68,15.36,6.68,10.02,0,16.2-4.58,18.54-13.74h10.24c-1.56,7.17-4.84,12.73-9.85,16.66-5.01,3.93-11.32,5.9-18.92,5.9M899.1,441.7c-3.37-3.8-8.04-5.7-14-5.7s-10.69,1.99-14.19,5.96c-3.5,3.98-5.68,9.16-6.55,15.55h40.31c-.35-6.74-2.2-12.01-5.57-15.81"/>
    </g>
  </g>
</svg>